# xmcd
#
# Track frame offsets:
#	150
#	15575
#	35932
#	50292
#	65402
#	78932
#	88872
#	97307
#	111327
#	124985
#	137440
#	160701
#	175843
#
# Disc length: 2595 seconds
#
# Revision: 1
# Processed by: cddbd v1.5.2PL0 Copyright (c) Steve Scherf et al.
# Submitted via: audiograbber 1.83.01
#
DISCID=ae0a210d
DTITLE=Unknown Hinson - Reloaded
DYEAR=2012
DGENRE=Country
TTITLE0=Human Oddity
TTITLE1=Spittin' on My Grave
TTITLE2=Before Your Husband Gets Home
TTITLE3=In My Head
TTITLE4=Nothin' Goin' Down on Down There
TTITLE5=To Hell with What You Want
TTITLE6=Fetch It for Me
TTITLE7=Unlock This Bathroom Door
TTITLE8=Smart-Ass Yankee (In a Rebel Court), A
TTITLE9=Robot Girl
TTITLE10=With His Money (And Your Love)
TTITLE11=Out on My Patio
TTITLE12=Sunday in the South
EXTD=
EXTT0=
EXTT1=
EXTT2=
EXTT3=
EXTT4=
EXTT5=
EXTT6=
EXTT7=
EXTT8=
EXTT9=
EXTT10=
EXTT11=
EXTT12=
PLAYORDER=
